<svg xmlns="http://www.w3.org/2000/svg" xmlns:xlink="http://www.w3.org/1999/xlink" width="1920" height="617" viewBox="0 0 1920 617"><defs><style>.a{fill:#fff;}.b{fill:url(#a);}.c{fill:url(#b);}.d{fill:url(#c);}</style><linearGradient id="a" x1="0.5" y1="1.978" x2="0.5" y2="0.869" gradientUnits="objectBoundingBox"><stop offset="0.16" stop-color="#afaddb"/><stop offset="0.33" stop-color="#958de2"/><stop offset="0.5" stop-color="#7e71e8"/><stop offset="0.65" stop-color="#7060ec"/><stop offset="0.77" stop-color="#6b5aed"/></linearGradient><linearGradient id="b" x1="0.5" y1="3.013" x2="0.5" y2="-0.768" gradientUnits="objectBoundingBox"><stop offset="0.3" stop-color="#afaddb"/><stop offset="0.44" stop-color="#958de2"/><stop offset="0.6" stop-color="#7e71e8"/><stop offset="0.74" stop-color="#7060ec"/><stop offset="0.85" stop-color="#6b5aed"/></linearGradient><linearGradient id="c" x1="0.5" y1="1.612" x2="0.5" y2="-2.169" gradientUnits="objectBoundingBox"><stop offset="0.16" stop-color="#afaddb"/><stop offset="0.27" stop-color="#958de2"/><stop offset="0.38" stop-color="#7e71e8"/><stop offset="0.47" stop-color="#7060ec"/><stop offset="0.55" stop-color="#6b5aed"/></linearGradient></defs><path class="a" d="M0,617V10.319C275,118.122,1052,0,1331,0s463,30.965,589,51.61V617Z"/><path class="b" d="M0,617V10.319C275,118.122,1052,0,1331,0s463,30.965,589,51.61V617Z"/><path class="c" d="M0,751.5V417.42c533,368.89,759,6.66,1371-46.89,278.72-24.39,549,69.62,549,69.63V751.5Z" transform="translate(0 -137)"/><path class="d" d="M0,754V537.94c533,238.57,759,4.31,1371-30.32,278.72-15.77,549,45,549,45V754Z" transform="translate(0 -137)"/></svg>