<svg xmlns="http://www.w3.org/2000/svg" width="77.765" height="79.352" viewBox="0 0 77.765 79.352"><defs><style>.a{fill:#4285f4;}.b{fill:#34a853;}.c{fill:#fbbc05;}.d{fill:#eb4335;}</style></defs><path class="a" d="M168.639,114.872a34,34,0,0,0-.838-8.111H130.55v14.724h21.866a19.389,19.389,0,0,1-8.111,12.873l-.074.493,11.778,9.124.816.081c7.494-6.921,11.815-17.1,11.815-29.184" transform="translate(-90.874 -74.315)"/><path class="b" d="M49.369,188.2c10.712,0,19.705-3.527,26.274-9.61l-12.52-9.7a23.482,23.482,0,0,1-13.754,3.968A23.885,23.885,0,0,1,26.8,156.37l-.465.04-12.247,9.478-.16.445A39.647,39.647,0,0,0,49.369,188.2" transform="translate(-9.693 -108.847)"/><path class="c" d="M17.1,97.162a24.426,24.426,0,0,1-1.322-7.847,25.667,25.667,0,0,1,1.278-7.847l-.022-.526-12.4-9.63-.406.193a39.592,39.592,0,0,0,0,35.62L17.1,97.162" transform="translate(0 -49.639)"/><path class="d" d="M49.369,15.341A21.99,21.99,0,0,1,64.71,21.249l11.2-10.933A38.12,38.12,0,0,0,49.369,0,39.647,39.647,0,0,0,13.925,21.866l12.828,9.963A23.983,23.983,0,0,1,49.369,15.341" transform="translate(-9.693)"/></svg>