<svg xmlns="http://www.w3.org/2000/svg" width="240.979" height="46.19" viewBox="0 0 240.979 46.19"><defs><style>.a{fill:#282828;}.b{fill:#6b5aed;}.c{fill:#5ddcea;}.d{fill:#4c3fa8;}</style></defs><g transform="translate(-0.5 -0.4)"><g transform="translate(71.317 37.619)"><path class="a" d="M129.717,73.523l-.891-2.229-.167,2.284H127.6l.39-4.179h1.059l1.059,2.619,1.114-2.619h1.059l.39,4.179h-1.059l-.167-2.284-.891,2.229Z" transform="translate(-127.6 -68.174)"/><path class="a" d="M141,73.579l1.616-4.179h1l1.672,4.179h-1.114l-.279-.724h-1.5l-.279.724Zm1.616-1.616h1l-.5-1.449Z" transform="translate(-133.534 -68.174)"/><path class="a" d="M155.952,72.119c.111.446.279.724.613.724a.633.633,0,0,0,.446-.167l.334.724a1.454,1.454,0,0,1-1,.334c-1,0-1.337-1.059-1.393-1.5h-.39v1.449H153.5V69.5h1.95a1.345,1.345,0,0,1,1.393,1.393A1.254,1.254,0,0,1,155.952,72.119Zm-.613-.724a.5.5,0,0,0,0-1h-.724V71.45h.724Z" transform="translate(-139.069 -68.218)"/><path class="a" d="M166.359,73.579H165.3V69.4h1.059v1.894l1.17-1.894h1.059v.167l-1.226,1.839.446.891c.223.446.334.446.557.446a.941.941,0,0,0,.279-.111c.111.279.223.5.334.724a1.572,1.572,0,0,1-.836.223,1.331,1.331,0,0,1-1.226-.891l-.557-1.17Z" transform="translate(-144.294 -68.174)"/><path class="a" d="M176.7,73.579V69.4h2.9v.891h-1.839v.836h1.56v.836h-1.56v.78H179.6v.891h-2.9Z" transform="translate(-149.343 -68.174)"/><path class="a" d="M190,69.4v.891h-1.17v3.343H187.77V70.291H186.6V69.4Z" transform="translate(-153.727 -68.174)"/><path class="a" d="M198.959,73.579H197.9V69.4h1.059Z" transform="translate(-158.73 -68.174)"/><path class="a" d="M206.459,71.239v2.34H205.4V69.4h.836l1.672,2.284V69.4h1.059v4.179h-.836Z" transform="translate(-162.052 -68.174)"/><path class="a" d="M219.284,69.3a2.378,2.378,0,0,1,1.5.557l-.557.724a1.579,1.579,0,0,0-.891-.334,1.183,1.183,0,0,0-1.282,1.226,1.2,1.2,0,0,0,1.226,1.226,2.8,2.8,0,0,0,.669-.111V72.03h-1v-.78h2.006v1.727a2.489,2.489,0,0,1-1.672.669A2.2,2.2,0,0,1,217,71.473,2.138,2.138,0,0,1,219.284,69.3Z" transform="translate(-167.188 -68.13)"/><path class="a" d="M237.16,73.59c-.836,0-1.56-.446-1.56-1.226a1.359,1.359,0,0,1,1-1.226,1.247,1.247,0,0,1-.446-.836c0-.724.669-1,1.281-1a1.08,1.08,0,0,1,1.17,1,1.19,1.19,0,0,1-.78,1c.167.167.279.334.446.5l.446-.557h.891v.167l-.78.947c.223.223.334.334.5.334a.624.624,0,0,0,.5-.223l.334.669a1.315,1.315,0,0,1-.891.39c-.446,0-.557-.223-.836-.5A1.487,1.487,0,0,1,237.16,73.59Zm-.111-1.839a.641.641,0,0,0-.446.557c0,.279.223.446.613.446a.774.774,0,0,0,.557-.279Zm.279-.947c.223-.111.39-.279.39-.446a.334.334,0,1,0-.669,0C237.049,70.526,237.16,70.637,237.327,70.8Z" transform="translate(-175.425 -68.13)"/><path class="a" d="M255.547,72.1a.694.694,0,0,0,.78.557c.334,0,.557-.111.557-.39,0-.111-.056-.279-.446-.39l-.446-.167a1.624,1.624,0,0,1-1.17-1.226,1.327,1.327,0,0,1,1.5-1.282,1.4,1.4,0,0,1,1.449,1l-.836.334a.677.677,0,0,0-.613-.446c-.279,0-.446.111-.446.334,0,.111.056.279.39.39l.446.167c.947.279,1.17.836,1.17,1.282,0,.891-.78,1.282-1.616,1.282a1.511,1.511,0,0,1-1.672-1.282Z" transform="translate(-183.839 -68.086)"/><path class="a" d="M268.5,69.4v.891h-1.17v3.343H266.27V70.291H265.1V69.4Z" transform="translate(-188.488 -68.174)"/><path class="a" d="M278.752,72.119c.111.446.279.724.613.724a.633.633,0,0,0,.446-.167l.334.724a1.454,1.454,0,0,1-1,.334c-1,0-1.337-1.059-1.393-1.5h-.39v1.449H276.3V69.5h1.95a1.345,1.345,0,0,1,1.393,1.393A1.192,1.192,0,0,1,278.752,72.119Zm-.613-.724a.5.5,0,0,0,0-1h-.724V71.45h.724Z" transform="translate(-193.448 -68.218)"/><path class="a" d="M287.3,73.579l1.616-4.179h1l1.672,4.179h-1.114l-.279-.724h-1.5l-.279.724Zm1.616-1.616h1l-.5-1.449Z" transform="translate(-198.319 -68.174)"/><path class="a" d="M301.7,69.4v.891h-1.17v3.343H299.47V70.291H298.3V69.4Z" transform="translate(-203.19 -68.174)"/><path class="a" d="M309.5,72.6V68.426h2.9v.891h-1.839v.836h1.56v.836h-1.56v.78H312.4v.891h-2.9Zm2.34-5.4-.836.891h-.669l.5-.891Z" transform="translate(-208.15 -67.2)"/><path class="a" d="M321.784,69.3a2.378,2.378,0,0,1,1.5.557l-.557.724a1.579,1.579,0,0,0-.891-.334,1.183,1.183,0,0,0-1.281,1.226,1.2,1.2,0,0,0,1.226,1.226,2.8,2.8,0,0,0,.669-.111V72.03h-1v-.78h2.006v1.727a2.489,2.489,0,0,1-1.672.669,2.2,2.2,0,0,1-2.284-2.173A2.138,2.138,0,0,1,321.784,69.3Z" transform="translate(-212.578 -68.13)"/><path class="a" d="M332.959,73.579H331.9V69.4h1.059Z" transform="translate(-218.069 -68.174)"/><path class="a" d="M339.5,73.579V69.4h2.9v.891h-1.839v.836h1.56v.836h-1.56v.78H342.4v.891h-2.9Z" transform="translate(-221.434 -68.174)"/><path class="a" d="M356.6,73.579V69.4h1.839a2.117,2.117,0,1,1,0,4.235H356.6Zm1.059-.891h.557a1.141,1.141,0,0,0,1.226-1.226,1.169,1.169,0,0,0-1.226-1.226h-.557Z" transform="translate(-229.007 -68.174)"/><path class="a" d="M369.959,73.579H368.9V69.4h1.059Z" transform="translate(-234.453 -68.174)"/><path class="a" d="M378.383,69.3a2.378,2.378,0,0,1,1.5.557l-.557.724a1.579,1.579,0,0,0-.891-.334,1.183,1.183,0,0,0-1.282,1.226,1.2,1.2,0,0,0,1.226,1.226,2.8,2.8,0,0,0,.669-.111V72.03h-1v-.78h2.006v1.727a2.49,2.49,0,0,1-1.672.669,2.2,2.2,0,0,1-2.284-2.173A2.078,2.078,0,0,1,378.383,69.3Z" transform="translate(-237.64 -68.13)"/><path class="a" d="M389.459,73.579H388.4V69.4h1.059Z" transform="translate(-243.088 -68.174)"/><path class="a" d="M398.8,69.4v.891h-1.17v3.343H396.57V70.291H395.4V69.4Z" transform="translate(-246.188 -68.174)"/><path class="a" d="M404.9,73.579l1.616-4.179h1l1.672,4.179h-1.114l-.279-.724h-1.5l-.279.724Zm1.616-1.616h1l-.5-1.449Z" transform="translate(-250.395 -68.174)"/><path class="a" d="M420.353,72.687v.891H417.4V69.4h1.059v3.343h1.894Z" transform="translate(-255.93 -68.174)"/><path class="a" d="M427.8,73.579V69.4h2.9v.891h-1.839v.836h1.56v.836h-1.56v.78H430.7v.891h-2.9Z" transform="translate(-260.536 -68.174)"/></g><path class="b" d="M9.415,55.6l8.859,15.434H.5Z" transform="translate(0 -24.444)"/><path class="b" d="M73.215,55.6l8.859,15.434H64.3Z" transform="translate(-28.252 -24.444)"/><path class="b" d="M25.359,28l8.915,15.378H16.5Z" transform="translate(-7.085 -12.222)"/><path class="a" d="M57.259,28l8.915,15.378H48.4Z" transform="translate(-21.211 -12.222)"/><path class="b" d="M41.315.4l8.859,15.378H32.4Z" transform="translate(-14.126)"/><path class="c" d="M16.5,55.6H34.274L25.359,71.034Z" transform="translate(-7.085 -24.444)"/><path class="c" d="M48.4,55.6H66.174L57.259,71.034Z" transform="translate(-21.211 -24.444)"/><path class="d" d="M32.4,28H50.174L41.315,43.378Z" transform="translate(-14.126 -12.222)"/><g transform="translate(71.094 2.907)"><path class="a" d="M143.971,32.351a8.244,8.244,0,0,1-7.689,4.847,8.931,8.931,0,0,1-9.082-9.3,8.85,8.85,0,0,1,9.138-9.193,8.091,8.091,0,0,1,7.633,4.792v-4.4h1.616V36.808h-1.616Zm.056-4.4a7.51,7.51,0,0,0-7.689-7.745c-4.625,0-7.466,3.51-7.466,7.745,0,4.346,3.009,7.8,7.522,7.8A7.579,7.579,0,0,0,144.027,27.949Z" transform="translate(-127.2 -11.011)"/><path class="a" d="M185.471,26.24a8.244,8.244,0,0,1-7.689,4.847,8.931,8.931,0,0,1-9.082-9.3,8.85,8.85,0,0,1,9.138-9.193,8.091,8.091,0,0,1,7.633,4.792V4.9h1.616V30.7h-1.616Zm.056-4.4a7.51,7.51,0,0,0-7.689-7.745c-4.625,0-7.466,3.51-7.466,7.745,0,4.346,3.009,7.8,7.522,7.8A7.579,7.579,0,0,0,185.527,21.838Z" transform="translate(-145.577 -4.9)"/><path class="a" d="M211.4,33.131c.669,1.672,2.452,2.507,4.625,2.507,2.229,0,4.235-1.226,4.235-3.343,0-1.337-.836-2.563-2.842-3.232l-2.619-.836c-2.062-.557-4.235-1.839-4.235-4.625,0-2.4,1.95-4.9,5.572-4.9a5.4,5.4,0,0,1,5.126,3.343l-1.5.446a3.709,3.709,0,0,0-3.622-2.229c-2.507,0-3.9,1.672-3.9,3.343,0,1.894,1.5,2.73,2.953,3.12l2.674.836c2.9.891,4.067,2.73,4.067,4.736,0,3.064-2.786,4.9-5.906,4.9-2.9,0-5.237-1.337-6.129-3.677Z" transform="translate(-163.822 -11.011)"/><path class="a" d="M264.2,18.7a9.406,9.406,0,0,1,9.361,9.3,9.333,9.333,0,1,1-9.361-9.3Zm0,17.05A7.775,7.775,0,1,0,256.627,28,7.623,7.623,0,0,0,264.2,35.75Z" transform="translate(-183.749 -11.011)"/><path class="a" d="M310.718,26.712c0-5.07-3.009-6.463-5.795-6.463-2.117,0-6.352,1.56-6.408,7.522v9.138H296.9V19.19h1.616v4.123a6.963,6.963,0,0,1,6.519-4.513c3.733,0,7.41,1.839,7.41,7.912v10.2h-1.616v-10.2Z" transform="translate(-202.347 -11.055)"/><path class="a" d="M337.016,30.7H335.4V4.9h1.616Z" transform="translate(-219.396 -4.9)"/><path class="c" d="M350.182,5.7a1.309,1.309,0,0,1,1.281,1.449,1.291,1.291,0,1,1-2.563,0A1.309,1.309,0,0,1,350.182,5.7Zm.836,25.352H349.4V13.389h1.616Z" transform="translate(-225.374 -5.254)"/><path class="a" d="M377.874,26.712c0-5.07-3.009-6.463-5.795-6.463-2.117,0-6.352,1.56-6.408,7.522v9.138H364V19.19h1.616v4.123a6.963,6.963,0,0,1,6.519-4.513c3.733,0,7.41,1.839,7.41,7.912v10.2h-1.616v-10.2Z" transform="translate(-232.061 -11.055)"/><path class="a" d="M416.917,34.3a9.918,9.918,0,0,1-7.3,2.9C403.6,37.2,399.7,33.075,399.7,28a9.268,9.268,0,0,1,9.528-9.3c4.4,0,8.525,2.619,8.692,8.748H401.427a2.712,2.712,0,0,0-.056.669c0,4.235,3.232,7.578,8.246,7.578a9.041,9.041,0,0,0,6.3-2.452A9.251,9.251,0,0,0,416.917,34.3Zm-15.322-8.135h14.6a6.6,6.6,0,0,0-6.965-5.962A7.624,7.624,0,0,0,401.594,26.166Z" transform="translate(-247.869 -11.011)"/></g></g></svg>